<svg width="39" height="55" viewBox="0 0 39 55" fill="none" xmlns="http://www.w3.org/2000/svg">
<path d="M13.1377 18.2812L10.0083 21.4087L8.77942 20.1804C8.73517 20.1368 8.68706 20.0976 8.63511 20.0637C8.58316 20.0297 8.52864 20.0008 8.47091 19.9771C8.41319 19.9533 8.35418 19.936 8.29325 19.9238C8.23231 19.9123 8.17074 19.9065 8.10852 19.9065C8.04631 19.9065 7.98473 19.9129 7.9238 19.9251C7.86287 19.9373 7.80386 19.9553 7.74613 19.9796C7.68905 20.0034 7.63453 20.0322 7.58258 20.0669C7.53127 20.1015 7.48316 20.1406 7.43955 20.1849C7.39529 20.2285 7.35617 20.2766 7.32153 20.3279C7.28689 20.3799 7.25803 20.4337 7.23366 20.4915C7.20993 20.5485 7.19197 20.6076 7.17978 20.6685C7.1676 20.7294 7.16118 20.791 7.16118 20.8532C7.16054 20.9154 7.16631 20.977 7.1785 21.0379C7.19069 21.0989 7.208 21.1579 7.23173 21.2156C7.25547 21.2727 7.28433 21.3278 7.31832 21.3792C7.35232 21.4311 7.39144 21.4792 7.43506 21.5235L9.33616 23.4226C9.38041 23.4669 9.42852 23.5067 9.47983 23.5413C9.53178 23.5759 9.58694 23.6048 9.64467 23.6285C9.70239 23.6529 9.7614 23.6709 9.82298 23.6831C9.88391 23.6952 9.94548 23.701 10.0083 23.701C10.0706 23.701 10.1321 23.6952 10.1937 23.6831C10.2546 23.6709 10.3143 23.6529 10.372 23.6285C10.4297 23.6048 10.4843 23.5759 10.5362 23.5413C10.5882 23.5067 10.6363 23.4669 10.6799 23.4226L14.4821 19.6243C14.5244 19.5794 14.5629 19.5313 14.5956 19.48C14.629 19.428 14.6572 19.3735 14.6796 19.3164C14.7027 19.2593 14.7194 19.2003 14.7309 19.1394C14.7418 19.0791 14.7476 19.0182 14.747 18.9566C14.7463 18.895 14.7393 18.8341 14.7271 18.7738C14.7143 18.7135 14.6963 18.6551 14.6726 18.5981C14.6488 18.5416 14.6193 18.4877 14.5853 18.4364C14.5507 18.3858 14.5116 18.3383 14.4686 18.2947C14.425 18.2511 14.3775 18.2126 14.3262 18.1779C14.2749 18.1433 14.221 18.1144 14.1646 18.0907C14.1075 18.067 14.0491 18.0484 13.9888 18.0362C13.9286 18.024 13.8676 18.017 13.806 18.0163C13.7445 18.0157 13.6835 18.0214 13.6226 18.0323C13.5623 18.0439 13.5033 18.0606 13.4462 18.0837C13.3885 18.1061 13.334 18.1343 13.282 18.167C13.2307 18.2004 13.1826 18.2382 13.1377 18.2812Z" fill="#102F43"/>
<path d="M13.1377 29.6775L10.0083 32.805L8.77942 31.5774C8.73516 31.5331 8.68706 31.4946 8.63511 31.46C8.58315 31.426 8.52863 31.3971 8.47091 31.3734C8.41318 31.3503 8.35417 31.3324 8.29324 31.3208C8.23231 31.3086 8.17074 31.3028 8.10852 31.3028C8.0463 31.3035 7.98473 31.3093 7.9238 31.3221C7.86286 31.3343 7.80386 31.3522 7.74613 31.376C7.68905 31.3997 7.63453 31.4292 7.58257 31.4638C7.53126 31.4978 7.48316 31.5376 7.43954 31.5812C7.39529 31.6255 7.35616 31.6729 7.32153 31.7242C7.28689 31.7762 7.25803 31.8307 7.23365 31.8878C7.20992 31.9455 7.19196 32.0045 7.17978 32.0655C7.16759 32.1264 7.16118 32.188 7.16118 32.2495C7.16054 32.3118 7.16695 32.3733 7.17849 32.4343C7.19068 32.4952 7.208 32.5549 7.23173 32.6119C7.25546 32.6697 7.28432 32.7242 7.31832 32.7761C7.35231 32.8281 7.39144 32.8756 7.43505 32.9198L9.33615 34.8196C9.38041 34.8632 9.42851 34.903 9.47983 34.9376C9.53178 34.9723 9.58694 35.0018 9.64466 35.0255C9.70239 35.0492 9.7614 35.0672 9.82297 35.0794C9.88391 35.0916 9.94548 35.0973 10.0083 35.0973C10.0706 35.0973 10.1321 35.0916 10.1937 35.0794C10.2546 35.0672 10.3143 35.0492 10.372 35.0255C10.4297 35.0018 10.4843 34.9723 10.5362 34.9376C10.5882 34.903 10.6363 34.8632 10.6799 34.8196L14.4821 31.0206C14.5244 30.9764 14.5629 30.9283 14.5956 30.8763C14.629 30.8244 14.6572 30.7698 14.6796 30.7128C14.7027 30.6557 14.7194 30.5967 14.7309 30.5364C14.7418 30.4754 14.7476 30.4145 14.747 30.3529C14.7463 30.2914 14.7393 30.2304 14.7271 30.1701C14.7143 30.1098 14.6963 30.0515 14.6726 29.995C14.6488 29.938 14.6193 29.8841 14.5853 29.8334C14.5507 29.7821 14.5116 29.7346 14.4686 29.691C14.425 29.648 14.3775 29.6089 14.3262 29.5743C14.2749 29.5403 14.221 29.5108 14.1646 29.4871C14.1075 29.4633 14.0491 29.4454 13.9888 29.4325C13.9286 29.4203 13.8676 29.4139 13.806 29.4133C13.7445 29.4127 13.6835 29.4178 13.6226 29.4293C13.5623 29.4402 13.5033 29.4575 13.4462 29.48C13.3885 29.5024 13.334 29.5307 13.282 29.564C13.2307 29.5974 13.1826 29.6352 13.1377 29.6775Z" fill="#102F43"/>
<path d="M13.1377 41.0745L10.0083 44.2013L8.77942 42.9737C8.73516 42.9301 8.68706 42.891 8.63511 42.857C8.58315 42.8223 8.52863 42.7935 8.47091 42.7704C8.41318 42.7466 8.35417 42.7293 8.29324 42.7171C8.23231 42.7056 8.17074 42.6992 8.10852 42.6998C8.0463 42.6998 7.98473 42.7062 7.9238 42.7184C7.86286 42.7306 7.80386 42.7486 7.74613 42.7723C7.68905 42.796 7.63453 42.8255 7.58257 42.8602C7.53126 42.8948 7.48316 42.9339 7.43954 42.9775C7.39529 43.0218 7.35616 43.0693 7.32153 43.1212C7.28689 43.1725 7.25803 43.227 7.23365 43.2848C7.20992 43.3419 7.19196 43.4009 7.17978 43.4618C7.16759 43.5227 7.16118 43.5843 7.16118 43.6465C7.16054 43.7081 7.16695 43.7697 7.17849 43.8306C7.19068 43.8915 7.208 43.9512 7.23173 44.0083C7.25546 44.066 7.28432 44.1205 7.31832 44.1725C7.35231 44.2244 7.39144 44.2725 7.43505 44.3168L9.33615 46.216C9.38041 46.2602 9.42851 46.2993 9.47983 46.334C9.53178 46.3686 9.58694 46.3981 9.64466 46.4218C9.70239 46.4456 9.7614 46.4635 9.82297 46.4757C9.88391 46.4879 9.94548 46.4943 10.0083 46.4943C10.0706 46.4943 10.1321 46.4879 10.1937 46.4757C10.2546 46.4635 10.3143 46.4456 10.372 46.4218C10.4297 46.3981 10.4843 46.3686 10.5362 46.334C10.5882 46.2993 10.6363 46.2602 10.6799 46.216L14.4821 42.417C14.5244 42.3727 14.5629 42.3246 14.5956 42.2726C14.629 42.2213 14.6572 42.1668 14.6796 42.1091C14.7027 42.052 14.7194 41.993 14.7309 41.9327C14.7418 41.8724 14.7476 41.8115 14.747 41.7499C14.7463 41.6883 14.7393 41.6274 14.7271 41.5671C14.7143 41.5068 14.6963 41.4485 14.6726 41.3914C14.6488 41.3349 14.6193 41.2811 14.5853 41.2297C14.5507 41.1784 14.5122 41.131 14.4686 41.088C14.425 41.0444 14.3775 41.0052 14.3262 40.9713C14.2749 40.9366 14.221 40.9078 14.1646 40.884C14.1075 40.8597 14.0491 40.8417 13.9888 40.8295C13.9286 40.8167 13.8676 40.8103 13.806 40.8096C13.7445 40.809 13.6835 40.8141 13.6226 40.8257C13.5623 40.8366 13.5033 40.8539 13.4462 40.8763C13.3885 40.8994 13.334 40.927 13.282 40.9604C13.2307 40.9937 13.1826 41.0315 13.1377 41.0745Z" fill="#102F43"/>
<path d="M18.5625 20.8519C18.5625 20.9141 18.5689 20.9763 18.5811 21.0373C18.5933 21.0982 18.6112 21.1579 18.635 21.2156C18.6587 21.2733 18.6882 21.3278 18.7228 21.3798C18.7575 21.4317 18.7966 21.4798 18.8409 21.5235C18.8851 21.5677 18.9332 21.6068 18.9852 21.6415C19.0371 21.6761 19.0917 21.7056 19.1494 21.7293C19.2071 21.7531 19.2668 21.7717 19.3277 21.7832C19.3886 21.7954 19.4508 21.8018 19.513 21.8018H30.9184C30.9812 21.8018 31.0428 21.7954 31.1037 21.7832C31.1653 21.771 31.2243 21.7531 31.282 21.7293C31.3398 21.7056 31.3949 21.6761 31.4469 21.6415C31.4982 21.6068 31.5463 21.5677 31.5905 21.5235C31.6348 21.4792 31.6739 21.4317 31.7086 21.3798C31.7432 21.3278 31.7727 21.2733 31.7964 21.2156C31.8208 21.1579 31.8388 21.0982 31.851 21.0373C31.8631 20.9763 31.8689 20.9141 31.8689 20.8519C31.8689 20.7897 31.8631 20.7281 31.851 20.6666C31.8388 20.6056 31.8208 20.546 31.7964 20.4889C31.7727 20.4312 31.7432 20.376 31.7086 20.3247C31.6739 20.2727 31.6348 20.2246 31.5905 20.1804C31.5463 20.1361 31.4982 20.097 31.4469 20.0624C31.3949 20.0277 31.3398 19.9982 31.282 19.9745C31.2243 19.9508 31.1653 19.9328 31.1037 19.9206C31.0428 19.9084 30.9812 19.902 30.9184 19.902H19.513C19.4508 19.902 19.3886 19.9084 19.3277 19.9206C19.2668 19.9328 19.2071 19.9508 19.1494 19.9745C19.0917 19.9982 19.0371 20.0277 18.9852 20.0624C18.9332 20.097 18.8851 20.1361 18.8409 20.1804C18.7966 20.2246 18.7575 20.2727 18.7228 20.324C18.6882 20.376 18.6587 20.4312 18.635 20.4882C18.6112 20.546 18.5933 20.6056 18.5811 20.6666C18.5689 20.7281 18.5625 20.7897 18.5625 20.8519Z" fill="#102F43"/>
<path d="M30.9184 31.299H19.513C19.4508 31.299 19.3886 31.3048 19.3277 31.3169C19.2668 31.3291 19.2071 31.3471 19.1494 31.3708C19.0917 31.3952 19.0371 31.4241 18.9852 31.4587C18.9332 31.4933 18.8851 31.5331 18.8409 31.5767C18.7966 31.621 18.7575 31.6691 18.7228 31.721C18.6882 31.773 18.6587 31.8275 18.635 31.8852C18.6112 31.9429 18.5933 32.002 18.5811 32.0635C18.5689 32.1245 18.5625 32.186 18.5625 32.2482C18.5625 32.3111 18.5689 32.3727 18.5811 32.4336C18.5933 32.4952 18.6112 32.5542 18.635 32.6119C18.6587 32.6696 18.6882 32.7242 18.7228 32.7761C18.7575 32.8281 18.7966 32.8762 18.8409 32.9198C18.8851 32.964 18.9332 33.0038 18.9852 33.0384C19.0371 33.0731 19.0917 33.1019 19.1494 33.1257C19.2071 33.1501 19.2668 33.168 19.3277 33.1802C19.3886 33.1924 19.4508 33.1982 19.513 33.1982H30.9184C30.9799 33.1969 31.0409 33.1898 31.1012 33.177C31.1615 33.1642 31.2198 33.1449 31.2769 33.1205C31.3333 33.0962 31.3872 33.0667 31.4379 33.032C31.4886 32.9968 31.5354 32.9576 31.579 32.9134C31.622 32.8698 31.6605 32.8217 31.6945 32.7703C31.7284 32.719 31.7567 32.6645 31.7804 32.6081C31.8035 32.551 31.8208 32.492 31.833 32.4317C31.8445 32.3714 31.851 32.3105 31.851 32.2482C31.851 32.1867 31.8445 32.1257 31.833 32.0654C31.8208 32.0052 31.8035 31.9461 31.7804 31.8891C31.7567 31.832 31.7284 31.7781 31.6945 31.7268C31.6605 31.6748 31.622 31.6274 31.579 31.5831C31.5354 31.5395 31.4886 31.4997 31.4379 31.4651C31.3872 31.4305 31.3333 31.401 31.2769 31.3766C31.2198 31.3522 31.1615 31.333 31.1012 31.3201C31.0409 31.3073 30.9799 31.3003 30.9184 31.299Z" fill="#102F43"/>
<path d="M30.9184 42.6953H19.513C19.4508 42.6953 19.3886 42.7018 19.3277 42.7139C19.2668 42.7255 19.2071 42.7441 19.1494 42.7678C19.0917 42.7916 19.0371 42.8211 18.9852 42.8557C18.9332 42.8903 18.8851 42.9295 18.8409 42.9737C18.7966 43.018 18.7575 43.0654 18.7228 43.1174C18.6882 43.1693 18.6587 43.2239 18.635 43.2816C18.6112 43.3393 18.5933 43.399 18.5811 43.4599C18.5689 43.5208 18.5625 43.583 18.5625 43.6453C18.5625 43.7075 18.5689 43.769 18.5811 43.8306C18.5933 43.8915 18.6112 43.9512 18.635 44.0083C18.6587 44.066 18.6882 44.1212 18.7228 44.1725C18.7575 44.2244 18.7966 44.2725 18.8409 44.3168C18.8851 44.3611 18.9332 44.4002 18.9852 44.4348C19.0371 44.4694 19.0917 44.499 19.1494 44.5227C19.2071 44.5464 19.2668 44.5644 19.3277 44.5766C19.3886 44.5887 19.4508 44.5945 19.513 44.5945H30.9184C30.9799 44.5939 31.0409 44.5862 31.1012 44.5734C31.1615 44.5605 31.2198 44.5419 31.2769 44.5176C31.3333 44.4932 31.3866 44.463 31.4379 44.4284C31.4886 44.3938 31.5354 44.354 31.579 44.3104C31.622 44.2661 31.6605 44.2187 31.6945 44.1673C31.7278 44.1154 31.7567 44.0615 31.7798 44.0044C31.8035 43.9473 31.8208 43.8883 31.833 43.828C31.8445 43.7678 31.8503 43.7068 31.8503 43.6453C31.8503 43.5837 31.8445 43.5227 31.833 43.4618C31.8208 43.4015 31.8035 43.3432 31.7798 43.2861C31.7567 43.229 31.7278 43.1745 31.6945 43.1232C31.6605 43.0718 31.622 43.0237 31.579 42.9801C31.5354 42.9359 31.4886 42.8967 31.4379 42.8621C31.3866 42.8268 31.3333 42.7973 31.2769 42.773C31.2198 42.7486 31.1615 42.73 31.1012 42.7165C31.0409 42.7037 30.9799 42.6966 30.9184 42.6953Z" fill="#102F43"/>
<mask id="mask0_75_725" style="mask-type:luminance" maskUnits="userSpaceOnUse" x="0" y="0" width="39" height="55">
<path d="M0.979492 0.899994H38.0471V54.1H0.979492V0.899994Z" fill="white"/>
</mask>
<g mask="url(#mask0_75_725)">
<path d="M27.7507 4.70667H24.1698C24.1134 4.44306 24.0345 4.18522 23.9338 3.93443C23.8331 3.68365 23.7119 3.44312 23.5701 3.2135C23.4284 2.98324 23.2687 2.76645 23.0897 2.56377C22.9114 2.36109 22.7171 2.17444 22.5067 2.00447C22.2963 1.83514 22.0731 1.68441 21.8371 1.55229C21.601 1.4208 21.356 1.30984 21.1007 1.2194C20.8461 1.12961 20.5851 1.06162 20.3189 1.01608C20.0521 0.970539 19.784 0.947449 19.5133 0.947449C19.2433 0.947449 18.9745 0.970539 18.7083 1.01608C18.4415 1.06162 18.1811 1.12961 17.9258 1.2194C17.6712 1.30984 17.4255 1.4208 17.1895 1.55229C16.9535 1.68441 16.7303 1.83514 16.5199 2.00511C16.3095 2.17444 16.1152 2.36109 15.9369 2.56377C15.7579 2.76645 15.5982 2.98324 15.4565 3.2135C15.3147 3.44376 15.1935 3.68365 15.0928 3.93443C14.9921 4.18522 14.9132 4.44306 14.8567 4.70732L11.2758 4.70667C11.1508 4.70732 11.0276 4.7195 10.9051 4.74388C10.7826 4.76825 10.6639 4.80417 10.5485 4.85227C10.4337 4.89974 10.324 4.9581 10.2201 5.02801C10.1168 5.09729 10.0206 5.17554 9.93211 5.26405C9.84423 5.35192 9.76534 5.44813 9.69607 5.55139C9.6268 5.6553 9.56779 5.76434 9.52033 5.87979C9.47223 5.99524 9.43631 6.1139 9.41193 6.23576C9.38756 6.35827 9.37473 6.48142 9.37473 6.60649V7.55576H4.78169C4.65662 7.5564 4.53283 7.56217 4.40904 7.575C4.28525 7.58719 4.1621 7.60515 4.04024 7.62952C3.91773 7.65389 3.79715 7.68404 3.67849 7.7206C3.55919 7.75652 3.44181 7.79885 3.327 7.84631C3.21219 7.89377 3.09995 7.94701 2.99027 8.00602C2.87995 8.06439 2.77348 8.12853 2.67021 8.1978C2.56695 8.26643 2.46689 8.34083 2.37068 8.41972C2.27447 8.49861 2.18211 8.58199 2.09424 8.66986C2.00637 8.75774 1.92299 8.8501 1.84409 8.94631C1.76456 9.04187 1.6908 9.14193 1.62153 9.2452C1.55226 9.34846 1.48812 9.45558 1.42975 9.56525C1.37074 9.67429 1.31751 9.78718 1.27004 9.90199C1.22258 10.0168 1.18025 10.1335 1.14433 10.2528C1.10777 10.3715 1.07763 10.4921 1.05325 10.6139C1.02888 10.7358 1.01028 10.859 0.998093 10.9827C0.985906 11.1065 0.979492 11.2303 0.979492 11.3548V50.2933C0.979492 50.4177 0.985906 50.5415 0.998093 50.6653C1.01028 50.7891 1.02888 50.9116 1.05325 51.0341C1.07763 51.156 1.10777 51.2766 1.14433 51.3952C1.18025 51.5145 1.22258 51.6313 1.27004 51.7461C1.31751 51.8609 1.37074 51.9731 1.42975 52.0828C1.48812 52.1925 1.55226 52.299 1.62153 52.4029C1.6908 52.5061 1.76456 52.6055 1.84409 52.7017C1.92299 52.798 2.00637 52.8903 2.09424 52.9782C2.18211 53.0661 2.27447 53.1494 2.37068 53.2283C2.46689 53.3072 2.56695 53.381 2.67021 53.4503C2.77348 53.5195 2.87995 53.5837 2.99027 53.642C3.09995 53.701 3.21219 53.7543 3.327 53.8017C3.44181 53.8492 3.55919 53.8915 3.67849 53.9275C3.79715 53.9634 3.91773 53.9942 4.04024 54.0185C4.1621 54.0429 4.28525 54.0609 4.40904 54.0731C4.53283 54.0852 4.65662 54.0917 4.78169 54.0917H34.2455C34.37 54.0917 34.4937 54.0852 34.6182 54.0731C34.742 54.0609 34.8645 54.0429 34.987 54.0185C35.1088 53.9942 35.2294 53.9634 35.3487 53.9275C35.4674 53.8915 35.5848 53.8492 35.6996 53.8017C35.8144 53.7543 35.9273 53.701 36.0369 53.642C36.1466 53.5837 36.2531 53.5195 36.3564 53.4503C36.4603 53.381 36.5597 53.3072 36.6559 53.2283C36.7521 53.1494 36.8445 53.0661 36.9323 52.9782C37.0202 52.8903 37.1042 52.798 37.1831 52.7017C37.262 52.6055 37.3358 52.5061 37.405 52.4029C37.4743 52.299 37.5385 52.1925 37.5968 52.0828C37.6558 51.9731 37.7091 51.8609 37.7565 51.7461C37.8046 51.6313 37.8463 51.5145 37.8822 51.3952C37.9188 51.2766 37.949 51.156 37.9733 51.0341C37.9977 50.9116 38.0163 50.7891 38.0285 50.6653C38.0407 50.5415 38.0471 50.4177 38.0471 50.2933V11.3548C38.0471 11.2303 38.0407 11.1065 38.0285 10.9827C38.0163 10.859 37.9977 10.7358 37.9733 10.6139C37.949 10.4921 37.9188 10.3715 37.8822 10.2528C37.8463 10.1335 37.8046 10.0168 37.7565 9.90199C37.7091 9.78718 37.6558 9.67429 37.5968 9.56525C37.5385 9.45558 37.4743 9.34846 37.405 9.2452C37.3358 9.14193 37.262 9.04187 37.1831 8.94631C37.1042 8.8501 37.0202 8.75774 36.9323 8.66986C36.8445 8.58199 36.7521 8.49861 36.6559 8.41972C36.5597 8.34083 36.4603 8.26643 36.3564 8.1978C36.2531 8.12853 36.1466 8.06439 36.0369 8.00602C35.9273 7.94701 35.8144 7.89377 35.6996 7.84631C35.5848 7.79885 35.4674 7.75652 35.3487 7.7206C35.2294 7.68404 35.1088 7.65389 34.987 7.62952C34.8645 7.60515 34.742 7.58719 34.6182 7.575C34.4937 7.56217 34.37 7.5564 34.2455 7.55576H29.6518V6.60649C29.6518 6.48142 29.6397 6.35827 29.6146 6.23576C29.5903 6.1139 29.5544 5.99524 29.5062 5.87979C29.4588 5.76434 29.4004 5.6553 29.3305 5.55139C29.2612 5.44813 29.1823 5.35192 29.0945 5.26405C29.006 5.17554 28.9104 5.09729 28.8065 5.02801C28.7026 4.9581 28.5935 4.89974 28.4781 4.85227C28.3626 4.80417 28.244 4.76825 28.1215 4.74388C27.999 4.7195 27.8758 4.70732 27.7507 4.70667ZM11.2758 6.60649H15.7117C15.7739 6.60649 15.8355 6.60008 15.8971 6.58789C15.958 6.5757 16.0177 6.55775 16.0754 6.53401C16.1331 6.51028 16.1876 6.48078 16.2396 6.44614C16.2916 6.41151 16.3397 6.37238 16.3839 6.32813C16.4275 6.28387 16.4673 6.23641 16.5019 6.18445C16.5366 6.1325 16.5661 6.07798 16.5898 6.02026C16.6135 5.96253 16.6315 5.90288 16.6437 5.84195C16.6559 5.78101 16.6623 5.7188 16.6623 5.65658C16.6629 5.56422 16.6687 5.47186 16.679 5.3795C16.6886 5.28714 16.7033 5.19606 16.7219 5.10562C16.7412 5.01454 16.7643 4.92539 16.7925 4.83688C16.8201 4.74837 16.8521 4.66114 16.8881 4.57583C16.9246 4.49052 16.9644 4.40778 17.0093 4.32633C17.0535 4.24487 17.1016 4.16598 17.1536 4.08901C17.2055 4.01268 17.2613 3.93828 17.3204 3.86709C17.38 3.79589 17.4422 3.7279 17.5083 3.66248C17.5743 3.5977 17.643 3.53548 17.7155 3.47712C17.7873 3.41875 17.8617 3.36423 17.9393 3.31292C18.0163 3.26161 18.0958 3.21414 18.1779 3.17117C18.26 3.12756 18.344 3.08843 18.4293 3.05315C18.5153 3.01788 18.6025 2.98709 18.6917 2.96015C18.7802 2.93385 18.87 2.91141 18.961 2.89345C19.0521 2.87549 19.1438 2.86202 19.2356 2.85304C19.3279 2.84406 19.4209 2.83957 19.5133 2.83957C19.6063 2.83957 19.6987 2.84406 19.791 2.85304C19.8834 2.86202 19.9751 2.87549 20.0655 2.89345C20.1566 2.91141 20.2464 2.93385 20.3356 2.96015C20.4241 2.98709 20.5113 3.01788 20.5972 3.05315C20.6832 3.08843 20.7666 3.12756 20.8487 3.17117C20.9308 3.21479 21.0103 3.26161 21.0879 3.31292C21.1649 3.36423 21.2393 3.41875 21.3118 3.47712C21.3836 3.53548 21.4522 3.5977 21.5183 3.66248C21.5844 3.7279 21.6472 3.79589 21.7062 3.86709C21.7652 3.93828 21.821 4.01268 21.873 4.08901C21.9249 4.16598 21.9737 4.24487 22.0179 4.32633C22.0622 4.40778 22.1026 4.49117 22.1385 4.57647C22.1751 4.66178 22.2065 4.74837 22.2347 4.83688C22.2623 4.92539 22.2854 5.01454 22.3046 5.10562C22.3232 5.19606 22.338 5.28778 22.3483 5.3795C22.3579 5.47186 22.3637 5.56422 22.3649 5.65658C22.3649 5.7188 22.3707 5.78101 22.3829 5.84195C22.3951 5.90288 22.413 5.96253 22.4368 6.02026C22.4611 6.07798 22.49 6.1325 22.5246 6.18445C22.5593 6.23641 22.599 6.28451 22.6433 6.32813C22.6869 6.37238 22.735 6.41151 22.787 6.44614C22.8389 6.48078 22.8934 6.51028 22.9512 6.53401C23.0089 6.55775 23.0686 6.5757 23.1295 6.58789C23.1911 6.60008 23.2526 6.60649 23.3155 6.60649H27.7507V10.4055H11.2758V6.60649ZM34.2455 9.45558C34.37 9.45558 34.4937 9.46776 34.6163 9.49214C34.7381 9.51651 34.8574 9.55307 34.9722 9.60053C35.0877 9.64864 35.1974 9.707 35.3006 9.77627C35.4045 9.84554 35.5007 9.92444 35.5886 10.0123C35.6771 10.1008 35.756 10.1964 35.8253 10.3003C35.8946 10.4036 35.9529 10.5132 36.001 10.628C36.0485 10.7435 36.0851 10.8622 36.1094 10.9847C36.1338 11.1065 36.146 11.2303 36.146 11.3548V50.2933C36.146 50.4177 36.1338 50.5415 36.1094 50.6634C36.0851 50.7859 36.0485 50.9046 36.001 51.0194C35.9529 51.1348 35.8946 51.2439 35.8253 51.3478C35.756 51.4517 35.6771 51.5472 35.5886 51.6357C35.5007 51.7236 35.4045 51.8025 35.3006 51.8718C35.1974 51.9411 35.0877 51.9994 34.9722 52.0475C34.8574 52.095 34.7381 52.1309 34.6163 52.1559C34.4937 52.1803 34.37 52.1925 34.2455 52.1925H4.78169C4.65662 52.1925 4.53283 52.1803 4.41096 52.1559C4.28846 52.1309 4.1698 52.095 4.05435 52.0475C3.9389 51.9994 3.82922 51.9411 3.72595 51.8718C3.62205 51.8025 3.52584 51.7236 3.43797 51.6357C3.34945 51.5472 3.27056 51.4517 3.20129 51.3478C3.13202 51.2439 3.07365 51.1348 3.02555 51.0194C2.97808 50.9046 2.94152 50.7859 2.91715 50.6634C2.89278 50.5415 2.88059 50.4177 2.88059 50.2933V11.3548C2.88059 11.2303 2.89278 11.1065 2.91715 10.9847C2.94152 10.8622 2.97808 10.7435 3.02555 10.628C3.07365 10.5132 3.13202 10.4036 3.20129 10.3003C3.27056 10.1964 3.34945 10.1008 3.43797 10.0123C3.52584 9.92444 3.62205 9.84554 3.72595 9.77627C3.82922 9.707 3.9389 9.64864 4.05435 9.60053C4.1698 9.55307 4.28846 9.51651 4.41096 9.49214C4.53283 9.46776 4.65662 9.45558 4.78169 9.45558H9.37473V10.4055C9.37473 10.5299 9.38756 10.6531 9.41193 10.7756C9.43631 10.8981 9.47223 11.0167 9.52033 11.1315C9.56779 11.247 9.6268 11.356 9.69607 11.4599C9.76534 11.5638 9.84423 11.6594 9.93211 11.7479C10.0206 11.8358 10.1168 11.9147 10.2201 11.984C10.324 12.0532 10.4337 12.1116 10.5485 12.1597C10.6639 12.2072 10.7826 12.2431 10.9051 12.2675C11.0276 12.2925 11.1508 12.3047 11.2758 12.3047H27.7507C27.8758 12.3047 27.999 12.2925 28.1215 12.2675C28.244 12.2431 28.3626 12.2072 28.4781 12.1597C28.5935 12.1116 28.7026 12.0532 28.8065 11.984C28.9104 11.9147 29.006 11.8358 29.0945 11.7479C29.1823 11.6594 29.2612 11.5638 29.3305 11.4599C29.4004 11.356 29.4588 11.247 29.5062 11.1315C29.5544 11.0167 29.5903 10.8981 29.6146 10.7756C29.6397 10.6531 29.6518 10.5299 29.6518 10.4055V9.45558H34.2455Z" fill="#102F43"/>
</g>
</svg>
